<?xml version="1.0" encoding="utf-8" standalone="no"?>
<!DOCTYPE svg PUBLIC "-//W3C//DTD SVG 1.1//EN"
  "http://www.w3.org/Graphics/SVG/1.1/DTD/svg11.dtd">
<!-- Created with matplotlib (https://matplotlib.org/) -->
<svg height="345.6pt" version="1.1" viewBox="0 0 460.8 345.6" width="460.8pt" xmlns="http://www.w3.org/2000/svg" xmlns:xlink="http://www.w3.org/1999/xlink">
 <defs>
  <style type="text/css">
*{stroke-linecap:butt;stroke-linejoin:round;}
  </style>
 </defs>
 <g id="figure_1">
  <g id="patch_1">
   <path d="M 0 345.6 
L 460.8 345.6 
L 460.8 0 
L 0 0 
z
" style="fill:#ffffff;"/>
  </g>
  <g id="axes_1">
   <g id="patch_2">
    <path d="M 57.6 307.584 
L 414.72 307.584 
L 414.72 41.472 
L 57.6 41.472 
z
" style="fill:#e5e5e5;"/>
   </g>
   <g id="matplotlib.axis_1">
    <g id="xtick_1">
     <g id="line2d_1">
      <path clip-path="url(#p3de592da2a)" d="M 86.851444 307.584 
L 86.851444 41.472 
" style="fill:none;stroke:#ffffff;stroke-linecap:square;stroke-width:0.8;"/>
     </g>
     <g id="line2d_2">
      <defs>
       <path d="M 0 0 
L 0 3.5 
" id="md46ce4edd3" style="stroke:#555555;stroke-width:0.8;"/>
      </defs>
      <g>
       <use style="fill:#555555;stroke:#555555;stroke-width:0.8;" x="86.851444" xlink:href="#md46ce4edd3" y="307.584"/>
      </g>
     </g>
     <g id="text_1">
      <!-- 10000 -->
      <defs>
       <path d="M 12.40625 8.296875 
L 28.515625 8.296875 
L 28.515625 63.921875 
L 10.984375 60.40625 
L 10.984375 69.390625 
L 28.421875 72.90625 
L 38.28125 72.90625 
L 38.28125 8.296875 
L 54.390625 8.296875 
L 54.390625 0 
L 12.40625 0 
z
" id="DejaVuSans-49"/>
       <path d="M 31.78125 66.40625 
Q 24.171875 66.40625 20.328125 58.90625 
Q 16.5 51.421875 16.5 36.375 
Q 16.5 21.390625 20.328125 13.890625 
Q 24.171875 6.390625 31.78125 6.390625 
Q 39.453125 6.390625 43.28125 13.890625 
Q 47.125 21.390625 47.125 36.375 
Q 47.125 51.421875 43.28125 58.90625 
Q 39.453125 66.40625 31.78125 66.40625 
z
M 31.78125 74.21875 
Q 44.046875 74.21875 50.515625 64.515625 
Q 56.984375 54.828125 56.984375 36.375 
Q 56.984375 17.96875 50.515625 8.265625 
Q 44.046875 -1.421875 31.78125 -1.421875 
Q 19.53125 -1.421875 13.0625 8.265625 
Q 6.59375 17.96875 6.59375 36.375 
Q 6.59375 54.828125 13.0625 64.515625 
Q 19.53125 74.21875 31.78125 74.21875 
z
" id="DejaVuSans-48"/>
      </defs>
      <g style="fill:#555555;" transform="translate(70.945194 322.182437)scale(0.1 -0.1)">
       <use xlink:href="#DejaVuSans-49"/>
       <use x="63.623047" xlink:href="#DejaVuSans-48"/>
       <use x="127.246094" xlink:href="#DejaVuSans-48"/>
       <use x="190.869141" xlink:href="#DejaVuSans-48"/>
       <use x="254.492188" xlink:href="#DejaVuSans-48"/>
      </g>
     </g>
    </g>
    <g id="xtick_2">
     <g id="line2d_3">
      <path clip-path="url(#p3de592da2a)" d="M 155.233554 307.584 
L 155.233554 41.472 
" style="fill:none;stroke:#ffffff;stroke-linecap:square;stroke-width:0.8;"/>
     </g>
     <g id="line2d_4">
      <g>
       <use style="fill:#555555;stroke:#555555;stroke-width:0.8;" x="155.233554" xlink:href="#md46ce4edd3" y="307.584"/>
      </g>
     </g>
     <g id="text_2">
      <!-- 20000 -->
      <defs>
       <path d="M 19.1875 8.296875 
L 53.609375 8.296875 
L 53.609375 0 
L 7.328125 0 
L 7.328125 8.296875 
Q 12.9375 14.109375 22.625 23.890625 
Q 32.328125 33.6875 34.8125 36.53125 
Q 39.546875 41.84375 41.421875 45.53125 
Q 43.3125 49.21875 43.3125 52.78125 
Q 43.3125 58.59375 39.234375 62.25 
Q 35.15625 65.921875 28.609375 65.921875 
Q 23.96875 65.921875 18.8125 64.3125 
Q 13.671875 62.703125 7.8125 59.421875 
L 7.8125 69.390625 
Q 13.765625 71.78125 18.9375 73 
Q 24.125 74.21875 28.421875 74.21875 
Q 39.75 74.21875 46.484375 68.546875 
Q 53.21875 62.890625 53.21875 53.421875 
Q 53.21875 48.921875 51.53125 44.890625 
Q 49.859375 40.875 45.40625 35.40625 
Q 44.1875 33.984375 37.640625 27.21875 
Q 31.109375 20.453125 19.1875 8.296875 
z
" id="DejaVuSans-50"/>
      </defs>
      <g style="fill:#555555;" transform="translate(139.327304 322.182437)scale(0.1 -0.1)">
       <use xlink:href="#DejaVuSans-50"/>
       <use x="63.623047" xlink:href="#DejaVuSans-48"/>
       <use x="127.246094" xlink:href="#DejaVuSans-48"/>
       <use x="190.869141" xlink:href="#DejaVuSans-48"/>
       <use x="254.492188" xlink:href="#DejaVuSans-48"/>
      </g>
     </g>
    </g>
    <g id="xtick_3">
     <g id="line2d_5">
      <path clip-path="url(#p3de592da2a)" d="M 223.615664 307.584 
L 223.615664 41.472 
" style="fill:none;stroke:#ffffff;stroke-linecap:square;stroke-width:0.8;"/>
     </g>
     <g id="line2d_6">
      <g>
       <use style="fill:#555555;stroke:#555555;stroke-width:0.8;" x="223.615664" xlink:href="#md46ce4edd3" y="307.584"/>
      </g>
     </g>
     <g id="text_3">
      <!-- 30000 -->
      <defs>
       <path d="M 40.578125 39.3125 
Q 47.65625 37.796875 51.625 33 
Q 55.609375 28.21875 55.609375 21.1875 
Q 55.609375 10.40625 48.1875 4.484375 
Q 40.765625 -1.421875 27.09375 -1.421875 
Q 22.515625 -1.421875 17.65625 -0.515625 
Q 12.796875 0.390625 7.625 2.203125 
L 7.625 11.71875 
Q 11.71875 9.328125 16.59375 8.109375 
Q 21.484375 6.890625 26.8125 6.890625 
Q 36.078125 6.890625 40.9375 10.546875 
Q 45.796875 14.203125 45.796875 21.1875 
Q 45.796875 27.640625 41.28125 31.265625 
Q 36.765625 34.90625 28.71875 34.90625 
L 20.21875 34.90625 
L 20.21875 43.015625 
L 29.109375 43.015625 
Q 36.375 43.015625 40.234375 45.921875 
Q 44.09375 48.828125 44.09375 54.296875 
Q 44.09375 59.90625 40.109375 62.90625 
Q 36.140625 65.921875 28.71875 65.921875 
Q 24.65625 65.921875 20.015625 65.03125 
Q 15.375 64.15625 9.8125 62.3125 
L 9.8125 71.09375 
Q 15.4375 72.65625 20.34375 73.4375 
Q 25.25 74.21875 29.59375 74.21875 
Q 40.828125 74.21875 47.359375 69.109375 
Q 53.90625 64.015625 53.90625 55.328125 
Q 53.90625 49.265625 50.4375 45.09375 
Q 46.96875 40.921875 40.578125 39.3125 
z
" id="DejaVuSans-51"/>
      </defs>
      <g style="fill:#555555;" transform="translate(207.709414 322.182437)scale(0.1 -0.1)">
       <use xlink:href="#DejaVuSans-51"/>
       <use x="63.623047" xlink:href="#DejaVuSans-48"/>
       <use x="127.246094" xlink:href="#DejaVuSans-48"/>
       <use x="190.869141" xlink:href="#DejaVuSans-48"/>
       <use x="254.492188" xlink:href="#DejaVuSans-48"/>
      </g>
     </g>
    </g>
    <g id="xtick_4">
     <g id="line2d_7">
      <path clip-path="url(#p3de592da2a)" d="M 291.997775 307.584 
L 291.997775 41.472 
" style="fill:none;stroke:#ffffff;stroke-linecap:square;stroke-width:0.8;"/>
     </g>
     <g id="line2d_8">
      <g>
       <use style="fill:#555555;stroke:#555555;stroke-width:0.8;" x="291.997775" xlink:href="#md46ce4edd3" y="307.584"/>
      </g>
     </g>
     <g id="text_4">
      <!-- 40000 -->
      <defs>
       <path d="M 37.796875 64.3125 
L 12.890625 25.390625 
L 37.796875 25.390625 
z
M 35.203125 72.90625 
L 47.609375 72.90625 
L 47.609375 25.390625 
L 58.015625 25.390625 
L 58.015625 17.1875 
L 47.609375 17.1875 
L 47.609375 0 
L 37.796875 0 
L 37.796875 17.1875 
L 4.890625 17.1875 
L 4.890625 26.703125 
z
" id="DejaVuSans-52"/>
      </defs>
      <g style="fill:#555555;" transform="translate(276.091525 322.182437)scale(0.1 -0.1)">
       <use xlink:href="#DejaVuSans-52"/>
       <use x="63.623047" xlink:href="#DejaVuSans-48"/>
       <use x="127.246094" xlink:href="#DejaVuSans-48"/>
       <use x="190.869141" xlink:href="#DejaVuSans-48"/>
       <use x="254.492188" xlink:href="#DejaVuSans-48"/>
      </g>
     </g>
    </g>
    <g id="xtick_5">
     <g id="line2d_9">
      <path clip-path="url(#p3de592da2a)" d="M 360.379885 307.584 
L 360.379885 41.472 
" style="fill:none;stroke:#ffffff;stroke-linecap:square;stroke-width:0.8;"/>
     </g>
     <g id="line2d_10">
      <g>
       <use style="fill:#555555;stroke:#555555;stroke-width:0.8;" x="360.379885" xlink:href="#md46ce4edd3" y="307.584"/>
      </g>
     </g>
     <g id="text_5">
      <!-- 50000 -->
      <defs>
       <path d="M 10.796875 72.90625 
L 49.515625 72.90625 
L 49.515625 64.59375 
L 19.828125 64.59375 
L 19.828125 46.734375 
Q 21.96875 47.46875 24.109375 47.828125 
Q 26.265625 48.1875 28.421875 48.1875 
Q 40.625 48.1875 47.75 41.5 
Q 54.890625 34.8125 54.890625 23.390625 
Q 54.890625 11.625 47.5625 5.09375 
Q 40.234375 -1.421875 26.90625 -1.421875 
Q 22.3125 -1.421875 17.546875 -0.640625 
Q 12.796875 0.140625 7.71875 1.703125 
L 7.71875 11.625 
Q 12.109375 9.234375 16.796875 8.0625 
Q 21.484375 6.890625 26.703125 6.890625 
Q 35.15625 6.890625 40.078125 11.328125 
Q 45.015625 15.765625 45.015625 23.390625 
Q 45.015625 31 40.078125 35.4375 
Q 35.15625 39.890625 26.703125 39.890625 
Q 22.75 39.890625 18.8125 39.015625 
Q 14.890625 38.140625 10.796875 36.28125 
z
" id="DejaVuSans-53"/>
      </defs>
      <g style="fill:#555555;" transform="translate(344.473635 322.182437)scale(0.1 -0.1)">
       <use xlink:href="#DejaVuSans-53"/>
       <use x="63.623047" xlink:href="#DejaVuSans-48"/>
       <use x="127.246094" xlink:href="#DejaVuSans-48"/>
       <use x="190.869141" xlink:href="#DejaVuSans-48"/>
       <use x="254.492188" xlink:href="#DejaVuSans-48"/>
      </g>
     </g>
    </g>
   </g>
   <g id="matplotlib.axis_2">
    <g id="ytick_1">
     <g id="line2d_11">
      <path clip-path="url(#p3de592da2a)" d="M 57.6 297.502403 
L 414.72 297.502403 
" style="fill:none;stroke:#ffffff;stroke-linecap:square;stroke-width:0.8;"/>
     </g>
     <g id="line2d_12">
      <defs>
       <path d="M 0 0 
L -3.5 0 
" id="m84f03d067a" style="stroke:#555555;stroke-width:0.8;"/>
      </defs>
      <g>
       <use style="fill:#555555;stroke:#555555;stroke-width:0.8;" x="57.6" xlink:href="#m84f03d067a" y="297.502403"/>
      </g>
     </g>
     <g id="text_6">
      <!-- 10000 -->
      <g style="fill:#555555;" transform="translate(18.7875 301.301622)scale(0.1 -0.1)">
       <use xlink:href="#DejaVuSans-49"/>
       <use x="63.623047" xlink:href="#DejaVuSans-48"/>
       <use x="127.246094" xlink:href="#DejaVuSans-48"/>
       <use x="190.869141" xlink:href="#DejaVuSans-48"/>
       <use x="254.492188" xlink:href="#DejaVuSans-48"/>
      </g>
     </g>
    </g>
    <g id="ytick_2">
     <g id="line2d_13">
      <path clip-path="url(#p3de592da2a)" d="M 57.6 258.516534 
L 414.72 258.516534 
" style="fill:none;stroke:#ffffff;stroke-linecap:square;stroke-width:0.8;"/>
     </g>
     <g id="line2d_14">
      <g>
       <use style="fill:#555555;stroke:#555555;stroke-width:0.8;" x="57.6" xlink:href="#m84f03d067a" y="258.516534"/>
      </g>
     </g>
     <g id="text_7">
      <!-- 20000 -->
      <g style="fill:#555555;" transform="translate(18.7875 262.315753)scale(0.1 -0.1)">
       <use xlink:href="#DejaVuSans-50"/>
       <use x="63.623047" xlink:href="#DejaVuSans-48"/>
       <use x="127.246094" xlink:href="#DejaVuSans-48"/>
       <use x="190.869141" xlink:href="#DejaVuSans-48"/>
       <use x="254.492188" xlink:href="#DejaVuSans-48"/>
      </g>
     </g>
    </g>
    <g id="ytick_3">
     <g id="line2d_15">
      <path clip-path="url(#p3de592da2a)" d="M 57.6 219.530664 
L 414.72 219.530664 
" style="fill:none;stroke:#ffffff;stroke-linecap:square;stroke-width:0.8;"/>
     </g>
     <g id="line2d_16">
      <g>
       <use style="fill:#555555;stroke:#555555;stroke-width:0.8;" x="57.6" xlink:href="#m84f03d067a" y="219.530664"/>
      </g>
     </g>
     <g id="text_8">
      <!-- 30000 -->
      <g style="fill:#555555;" transform="translate(18.7875 223.329883)scale(0.1 -0.1)">
       <use xlink:href="#DejaVuSans-51"/>
       <use x="63.623047" xlink:href="#DejaVuSans-48"/>
       <use x="127.246094" xlink:href="#DejaVuSans-48"/>
       <use x="190.869141" xlink:href="#DejaVuSans-48"/>
       <use x="254.492188" xlink:href="#DejaVuSans-48"/>
      </g>
     </g>
    </g>
    <g id="ytick_4">
     <g id="line2d_17">
      <path clip-path="url(#p3de592da2a)" d="M 57.6 180.544795 
L 414.72 180.544795 
" style="fill:none;stroke:#ffffff;stroke-linecap:square;stroke-width:0.8;"/>
     </g>
     <g id="line2d_18">
      <g>
       <use style="fill:#555555;stroke:#555555;stroke-width:0.8;" x="57.6" xlink:href="#m84f03d067a" y="180.544795"/>
      </g>
     </g>
     <g id="text_9">
      <!-- 40000 -->
      <g style="fill:#555555;" transform="translate(18.7875 184.344014)scale(0.1 -0.1)">
       <use xlink:href="#DejaVuSans-52"/>
       <use x="63.623047" xlink:href="#DejaVuSans-48"/>
       <use x="127.246094" xlink:href="#DejaVuSans-48"/>
       <use x="190.869141" xlink:href="#DejaVuSans-48"/>
       <use x="254.492188" xlink:href="#DejaVuSans-48"/>
      </g>
     </g>
    </g>
    <g id="ytick_5">
     <g id="line2d_19">
      <path clip-path="url(#p3de592da2a)" d="M 57.6 141.558926 
L 414.72 141.558926 
" style="fill:none;stroke:#ffffff;stroke-linecap:square;stroke-width:0.8;"/>
     </g>
     <g id="line2d_20">
      <g>
       <use style="fill:#555555;stroke:#555555;stroke-width:0.8;" x="57.6" xlink:href="#m84f03d067a" y="141.558926"/>
      </g>
     </g>
     <g id="text_10">
      <!-- 50000 -->
      <g style="fill:#555555;" transform="translate(18.7875 145.358144)scale(0.1 -0.1)">
       <use xlink:href="#DejaVuSans-53"/>
       <use x="63.623047" xlink:href="#DejaVuSans-48"/>
       <use x="127.246094" xlink:href="#DejaVuSans-48"/>
       <use x="190.869141" xlink:href="#DejaVuSans-48"/>
       <use x="254.492188" xlink:href="#DejaVuSans-48"/>
      </g>
     </g>
    </g>
    <g id="ytick_6">
     <g id="line2d_21">
      <path clip-path="url(#p3de592da2a)" d="M 57.6 102.573056 
L 414.72 102.573056 
" style="fill:none;stroke:#ffffff;stroke-linecap:square;stroke-width:0.8;"/>
     </g>
     <g id="line2d_22">
      <g>
       <use style="fill:#555555;stroke:#555555;stroke-width:0.8;" x="57.6" xlink:href="#m84f03d067a" y="102.573056"/>
      </g>
     </g>
     <g id="text_11">
      <!-- 60000 -->
      <defs>
       <path d="M 33.015625 40.375 
Q 26.375 40.375 22.484375 35.828125 
Q 18.609375 31.296875 18.609375 23.390625 
Q 18.609375 15.53125 22.484375 10.953125 
Q 26.375 6.390625 33.015625 6.390625 
Q 39.65625 6.390625 43.53125 10.953125 
Q 47.40625 15.53125 47.40625 23.390625 
Q 47.40625 31.296875 43.53125 35.828125 
Q 39.65625 40.375 33.015625 40.375 
z
M 52.59375 71.296875 
L 52.59375 62.3125 
Q 48.875 64.0625 45.09375 64.984375 
Q 41.3125 65.921875 37.59375 65.921875 
Q 27.828125 65.921875 22.671875 59.328125 
Q 17.53125 52.734375 16.796875 39.40625 
Q 19.671875 43.65625 24.015625 45.921875 
Q 28.375 48.1875 33.59375 48.1875 
Q 44.578125 48.1875 50.953125 41.515625 
Q 57.328125 34.859375 57.328125 23.390625 
Q 57.328125 12.15625 50.6875 5.359375 
Q 44.046875 -1.421875 33.015625 -1.421875 
Q 20.359375 -1.421875 13.671875 8.265625 
Q 6.984375 17.96875 6.984375 36.375 
Q 6.984375 53.65625 15.1875 63.9375 
Q 23.390625 74.21875 37.203125 74.21875 
Q 40.921875 74.21875 44.703125 73.484375 
Q 48.484375 72.75 52.59375 71.296875 
z
" id="DejaVuSans-54"/>
      </defs>
      <g style="fill:#555555;" transform="translate(18.7875 106.372275)scale(0.1 -0.1)">
       <use xlink:href="#DejaVuSans-54"/>
       <use x="63.623047" xlink:href="#DejaVuSans-48"/>
       <use x="127.246094" xlink:href="#DejaVuSans-48"/>
       <use x="190.869141" xlink:href="#DejaVuSans-48"/>
       <use x="254.492188" xlink:href="#DejaVuSans-48"/>
      </g>
     </g>
    </g>
    <g id="ytick_7">
     <g id="line2d_23">
      <path clip-path="url(#p3de592da2a)" d="M 57.6 63.587187 
L 414.72 63.587187 
" style="fill:none;stroke:#ffffff;stroke-linecap:square;stroke-width:0.8;"/>
     </g>
     <g id="line2d_24">
      <g>
       <use style="fill:#555555;stroke:#555555;stroke-width:0.8;" x="57.6" xlink:href="#m84f03d067a" y="63.587187"/>
      </g>
     </g>
     <g id="text_12">
      <!-- 70000 -->
      <defs>
       <path d="M 8.203125 72.90625 
L 55.078125 72.90625 
L 55.078125 68.703125 
L 28.609375 0 
L 18.3125 0 
L 43.21875 64.59375 
L 8.203125 64.59375 
z
" id="DejaVuSans-55"/>
      </defs>
      <g style="fill:#555555;" transform="translate(18.7875 67.386406)scale(0.1 -0.1)">
       <use xlink:href="#DejaVuSans-55"/>
       <use x="63.623047" xlink:href="#DejaVuSans-48"/>
       <use x="127.246094" xlink:href="#DejaVuSans-48"/>
       <use x="190.869141" xlink:href="#DejaVuSans-48"/>
       <use x="254.492188" xlink:href="#DejaVuSans-48"/>
      </g>
     </g>
    </g>
   </g>
   <g id="PathCollection_1">
    <defs>
     <path d="M 0 3 
C 0.795609 3 1.55874 2.683901 2.12132 2.12132 
C 2.683901 1.55874 3 0.795609 3 0 
C 3 -0.795609 2.683901 -1.55874 2.12132 -2.12132 
C 1.55874 -2.683901 0.795609 -3 0 -3 
C -0.795609 -3 -1.55874 -2.683901 -2.12132 -2.12132 
C -2.683901 -1.55874 -3 -0.795609 -3 0 
C -3 0.795609 -2.683901 1.55874 -2.12132 2.12132 
C -1.55874 2.683901 -0.795609 3 0 3 
z
" id="me008386eae" style="stroke:#e24a33;stroke-width:0.5;"/>
    </defs>
    <g clip-path="url(#p3de592da2a)">
     <use style="fill:#e24a33;stroke:#e24a33;stroke-width:0.5;" x="283.885837" xlink:href="#me008386eae" y="224.160579"/>
     <use style="fill:#e24a33;stroke:#e24a33;stroke-width:0.5;" x="190.44068" xlink:href="#me008386eae" y="258.737337"/>
     <use style="fill:#e24a33;stroke:#e24a33;stroke-width:0.5;" x="146.196064" xlink:href="#me008386eae" y="267.133188"/>
     <use style="fill:#e24a33;stroke:#e24a33;stroke-width:0.5;" x="122.380998" xlink:href="#me008386eae" y="253.417053"/>
     <use style="fill:#e24a33;stroke:#e24a33;stroke-width:0.5;" x="142.65673" xlink:href="#me008386eae" y="259.210848"/>
     <use style="fill:#e24a33;stroke:#e24a33;stroke-width:0.5;" x="245.452412" xlink:href="#me008386eae" y="210.727175"/>
     <use style="fill:#e24a33;stroke:#e24a33;stroke-width:0.5;" x="143.399511" xlink:href="#me008386eae" y="247.661413"/>
     <use style="fill:#e24a33;stroke:#e24a33;stroke-width:0.5;" x="213.850559" xlink:href="#me008386eae" y="220.511365"/>
     <use style="fill:#e24a33;stroke:#e24a33;stroke-width:0.5;" x="178.669916" xlink:href="#me008386eae" y="235.296976"/>
     <use style="fill:#e24a33;stroke:#e24a33;stroke-width:0.5;" x="234.413575" xlink:href="#me008386eae" y="229.27216"/>
     <use style="fill:#e24a33;stroke:#e24a33;stroke-width:0.5;" x="116.014136" xlink:href="#me008386eae" y="283.679445"/>
     <use style="fill:#e24a33;stroke:#e24a33;stroke-width:0.5;" x="117.332761" xlink:href="#me008386eae" y="247.63573"/>
     <use style="fill:#e24a33;stroke:#e24a33;stroke-width:0.5;" x="149.934059" xlink:href="#me008386eae" y="241.140159"/>
     <use style="fill:#e24a33;stroke:#e24a33;stroke-width:0.5;" x="174.018402" xlink:href="#me008386eae" y="246.104575"/>
     <use style="fill:#e24a33;stroke:#e24a33;stroke-width:0.5;" x="158.653996" xlink:href="#me008386eae" y="277.740793"/>
     <use style="fill:#e24a33;stroke:#e24a33;stroke-width:0.5;" x="134.42492" xlink:href="#me008386eae" y="259.162641"/>
     <use style="fill:#e24a33;stroke:#e24a33;stroke-width:0.5;" x="118.205733" xlink:href="#me008386eae" y="283.117638"/>
     <use style="fill:#e24a33;stroke:#e24a33;stroke-width:0.5;" x="166.272331" xlink:href="#me008386eae" y="248.595041"/>
     <use style="fill:#e24a33;stroke:#e24a33;stroke-width:0.5;" x="111.913262" xlink:href="#me008386eae" y="275.580599"/>
     <use style="fill:#e24a33;stroke:#e24a33;stroke-width:0.5;" x="163.939814" xlink:href="#me008386eae" y="255.123827"/>
     <use style="fill:#e24a33;stroke:#e24a33;stroke-width:0.5;" x="142.879803" xlink:href="#me008386eae" y="245.270521"/>
     <use style="fill:#e24a33;stroke:#e24a33;stroke-width:0.5;" x="124.999054" xlink:href="#me008386eae" y="262.952334"/>
     <use style="fill:#e24a33;stroke:#e24a33;stroke-width:0.5;" x="170.274107" xlink:href="#me008386eae" y="258.28437"/>
     <use style="fill:#e24a33;stroke:#e24a33;stroke-width:0.5;" x="133.233563" xlink:href="#me008386eae" y="247.614592"/>
     <use style="fill:#e24a33;stroke:#e24a33;stroke-width:0.5;" x="189.951674" xlink:href="#me008386eae" y="226.806463"/>
     <use style="fill:#e24a33;stroke:#e24a33;stroke-width:0.5;" x="174.022541" xlink:href="#me008386eae" y="227.986486"/>
     <use style="fill:#e24a33;stroke:#e24a33;stroke-width:0.5;" x="159.669276" xlink:href="#me008386eae" y="262.991937"/>
     <use style="fill:#e24a33;stroke:#e24a33;stroke-width:0.5;" x="122.781553" xlink:href="#me008386eae" y="271.942293"/>
     <use style="fill:#e24a33;stroke:#e24a33;stroke-width:0.5;" x="126.544768" xlink:href="#me008386eae" y="257.352554"/>
     <use style="fill:#e24a33;stroke:#e24a33;stroke-width:0.5;" x="160.402365" xlink:href="#me008386eae" y="222.991026"/>
     <use style="fill:#e24a33;stroke:#e24a33;stroke-width:0.5;" x="73.832769" xlink:href="#me008386eae" y="275.702788"/>
     <use style="fill:#e24a33;stroke:#e24a33;stroke-width:0.5;" x="124.507021" xlink:href="#me008386eae" y="249.343197"/>
     <use style="fill:#e24a33;stroke:#e24a33;stroke-width:0.5;" x="107.495034" xlink:href="#me008386eae" y="250.142803"/>
     <use style="fill:#e24a33;stroke:#e24a33;stroke-width:0.5;" x="83.465903" xlink:href="#me008386eae" y="258.910375"/>
     <use style="fill:#e24a33;stroke:#e24a33;stroke-width:0.5;" x="117.316777" xlink:href="#me008386eae" y="260.205894"/>
     <use style="fill:#e24a33;stroke:#e24a33;stroke-width:0.5;" x="127.631749" xlink:href="#me008386eae" y="270.865186"/>
     <use style="fill:#e24a33;stroke:#e24a33;stroke-width:0.5;" x="151.275823" xlink:href="#me008386eae" y="253.541846"/>
     <use style="fill:#e24a33;stroke:#e24a33;stroke-width:0.5;" x="176.222951" xlink:href="#me008386eae" y="250.110784"/>
     <use style="fill:#e24a33;stroke:#e24a33;stroke-width:0.5;" x="250.713996" xlink:href="#me008386eae" y="190.443292"/>
     <use style="fill:#e24a33;stroke:#e24a33;stroke-width:0.5;" x="120.61522" xlink:href="#me008386eae" y="275.452353"/>
     <use style="fill:#e24a33;stroke:#e24a33;stroke-width:0.5;" x="168.086058" xlink:href="#me008386eae" y="224.140934"/>
     <use style="fill:#e24a33;stroke:#e24a33;stroke-width:0.5;" x="120.846399" xlink:href="#me008386eae" y="263.852039"/>
     <use style="fill:#e24a33;stroke:#e24a33;stroke-width:0.5;" x="257.929476" xlink:href="#me008386eae" y="226.198642"/>
     <use style="fill:#e24a33;stroke:#e24a33;stroke-width:0.5;" x="189.770307" xlink:href="#me008386eae" y="238.721634"/>
     <use style="fill:#e24a33;stroke:#e24a33;stroke-width:0.5;" x="142.721248" xlink:href="#me008386eae" y="250.042856"/>
     <use style="fill:#e24a33;stroke:#e24a33;stroke-width:0.5;" x="116.454273" xlink:href="#me008386eae" y="295.487968"/>
     <use style="fill:#e24a33;stroke:#e24a33;stroke-width:0.5;" x="129.171539" xlink:href="#me008386eae" y="265.333145"/>
     <use style="fill:#e24a33;stroke:#e24a33;stroke-width:0.5;" x="240.210322" xlink:href="#me008386eae" y="202.48953"/>
     <use style="fill:#e24a33;stroke:#e24a33;stroke-width:0.5;" x="169.416115" xlink:href="#me008386eae" y="265.704538"/>
     <use style="fill:#e24a33;stroke:#e24a33;stroke-width:0.5;" x="128.108592" xlink:href="#me008386eae" y="277.330117"/>
     <use style="fill:#e24a33;stroke:#e24a33;stroke-width:0.5;" x="136.907633" xlink:href="#me008386eae" y="271.053742"/>
     <use style="fill:#e24a33;stroke:#e24a33;stroke-width:0.5;" x="157.193932" xlink:href="#me008386eae" y="225.605569"/>
     <use style="fill:#e24a33;stroke:#e24a33;stroke-width:0.5;" x="117.356803" xlink:href="#me008386eae" y="258.518529"/>
     <use style="fill:#e24a33;stroke:#e24a33;stroke-width:0.5;" x="161.78591" xlink:href="#me008386eae" y="272.251606"/>
     <use style="fill:#e24a33;stroke:#e24a33;stroke-width:0.5;" x="170.031752" xlink:href="#me008386eae" y="265.569161"/>
     <use style="fill:#e24a33;stroke:#e24a33;stroke-width:0.5;" x="155.123776" xlink:href="#me008386eae" y="257.707075"/>
     <use style="fill:#e24a33;stroke:#e24a33;stroke-width:0.5;" x="139.677146" xlink:href="#me008386eae" y="263.833826"/>
     <use style="fill:#e24a33;stroke:#e24a33;stroke-width:0.5;" x="144.512116" xlink:href="#me008386eae" y="269.302561"/>
     <use style="fill:#e24a33;stroke:#e24a33;stroke-width:0.5;" x="144.952181" xlink:href="#me008386eae" y="277.769515"/>
     <use style="fill:#e24a33;stroke:#e24a33;stroke-width:0.5;" x="134.15874" xlink:href="#me008386eae" y="252.107333"/>
     <use style="fill:#e24a33;stroke:#e24a33;stroke-width:0.5;" x="149.952422" xlink:href="#me008386eae" y="251.152667"/>
     <use style="fill:#e24a33;stroke:#e24a33;stroke-width:0.5;" x="183.134389" xlink:href="#me008386eae" y="237.392619"/>
     <use style="fill:#e24a33;stroke:#e24a33;stroke-width:0.5;" x="128.980417" xlink:href="#me008386eae" y="248.799732"/>
     <use style="fill:#e24a33;stroke:#e24a33;stroke-width:0.5;" x="151.579763" xlink:href="#me008386eae" y="244.224611"/>
     <use style="fill:#e24a33;stroke:#e24a33;stroke-width:0.5;" x="91.187963" xlink:href="#me008386eae" y="293.136862"/>
     <use style="fill:#e24a33;stroke:#e24a33;stroke-width:0.5;" x="111.491893" xlink:href="#me008386eae" y="274.937256"/>
     <use style="fill:#e24a33;stroke:#e24a33;stroke-width:0.5;" x="398.487231" xlink:href="#me008386eae" y="53.568032"/>
     <use style="fill:#e24a33;stroke:#e24a33;stroke-width:0.5;" x="140.843852" xlink:href="#me008386eae" y="271.482252"/>
     <use style="fill:#e24a33;stroke:#e24a33;stroke-width:0.5;" x="119.521149" xlink:href="#me008386eae" y="265.891122"/>
     <use style="fill:#e24a33;stroke:#e24a33;stroke-width:0.5;" x="157.493494" xlink:href="#me008386eae" y="244.915407"/>
     <use style="fill:#e24a33;stroke:#e24a33;stroke-width:0.5;" x="159.353519" xlink:href="#me008386eae" y="263.268774"/>
     <use style="fill:#e24a33;stroke:#e24a33;stroke-width:0.5;" x="207.210546" xlink:href="#me008386eae" y="240.209364"/>
     <use style="fill:#e24a33;stroke:#e24a33;stroke-width:0.5;" x="186.238764" xlink:href="#me008386eae" y="241.53199"/>
     <use style="fill:#e24a33;stroke:#e24a33;stroke-width:0.5;" x="100.012415" xlink:href="#me008386eae" y="253.665313"/>
     <use style="fill:#e24a33;stroke:#e24a33;stroke-width:0.5;" x="134.112305" xlink:href="#me008386eae" y="266.855314"/>
     <use style="fill:#e24a33;stroke:#e24a33;stroke-width:0.5;" x="175.300374" xlink:href="#me008386eae" y="244.412147"/>
     <use style="fill:#e24a33;stroke:#e24a33;stroke-width:0.5;" x="121.470232" xlink:href="#me008386eae" y="279.399749"/>
     <use style="fill:#e24a33;stroke:#e24a33;stroke-width:0.5;" x="101.763615" xlink:href="#me008386eae" y="252.141552"/>
    </g>
   </g>
   <g id="patch_3">
    <path d="M 57.6 307.584 
L 57.6 41.472 
" style="fill:none;stroke:#ffffff;stroke-linecap:square;stroke-linejoin:miter;"/>
   </g>
   <g id="patch_4">
    <path d="M 414.72 307.584 
L 414.72 41.472 
" style="fill:none;stroke:#ffffff;stroke-linecap:square;stroke-linejoin:miter;"/>
   </g>
   <g id="patch_5">
    <path d="M 57.6 307.584 
L 414.72 307.584 
" style="fill:none;stroke:#ffffff;stroke-linecap:square;stroke-linejoin:miter;"/>
   </g>
   <g id="patch_6">
    <path d="M 57.6 41.472 
L 414.72 41.472 
" style="fill:none;stroke:#ffffff;stroke-linecap:square;stroke-linejoin:miter;"/>
   </g>
  </g>
 </g>
 <defs>
  <clipPath id="p3de592da2a">
   <rect height="266.112" width="357.12" x="57.6" y="41.472"/>
  </clipPath>
 </defs>
</svg>
